<svg width="42" height="42" viewBox="0 0 42 42" fill="none" xmlns="http://www.w3.org/2000/svg">
<circle cx="21" cy="21" r="21" fill="#F29D52"/>
<path d="M26 11H16C13.2386 11 11 13.2386 11 16V26C11 28.7614 13.2386 31 16 31H26C28.7614 31 31 28.7614 31 26V16C31 13.2386 28.7614 11 26 11Z" stroke="white" stroke-width="2" stroke-linecap="round" stroke-linejoin="round"/>
<path d="M25.0002 20.3701C25.1236 21.2023 24.9815 22.0523 24.594 22.7991C24.2065 23.5459 23.5933 24.1515 22.8418 24.5297C22.0903 24.908 21.2386 25.0397 20.408 24.906C19.5773 24.7723 18.81 24.3801 18.215 23.7852C17.6201 23.1903 17.2279 22.4229 17.0943 21.5923C16.9606 20.7616 17.0923 19.91 17.4705 19.1584C17.8488 18.4069 18.4544 17.7938 19.2012 17.4063C19.948 17.0188 20.7979 16.8766 21.6302 17.0001C22.4791 17.1259 23.265 17.5215 23.8719 18.1284C24.4787 18.7352 24.8743 19.5211 25.0002 20.3701Z" stroke="white" stroke-width="2" stroke-linecap="round" stroke-linejoin="round"/>
<path d="M26.5 15.5H26.51" stroke="white" stroke-width="2" stroke-linecap="round" stroke-linejoin="round"/>
</svg>
