<svg width="130" height="40" viewBox="0 0 130 40" fill="none" xmlns="http://www.w3.org/2000/svg">
<path d="M99.1311 28.4267C99.0175 28.7422 98.8962 29.0521 98.7637 29.3658C98.8944 29.0521 99.0175 28.746 99.1311 28.4267Z" fill="#263140"/>
<path d="M100.175 24.0222C100.137 24.3584 100.088 24.6909 100.029 25.0233C100.086 24.6909 100.135 24.3584 100.175 24.0222Z" fill="#263140"/>
<path d="M100.317 20.8574C100.317 20.5344 100.29 20.2132 100.266 19.8901C100.292 20.2038 100.309 20.525 100.317 20.8574Z" fill="#263140"/>
<path d="M100.32 22.0013C100.32 21.7252 100.32 21.4472 100.32 21.1711C100.33 21.4472 100.328 21.7233 100.32 22.0013Z" fill="#263140"/>
<path d="M130 8.78042V24.5218C130 32.5569 122.629 39.3429 113.902 39.3429C108.084 39.3429 102.87 36.3096 100.052 31.8995C102.01 28.2745 102.881 23.9471 102.514 19.5445C102.144 15.0894 100.531 10.946 97.9399 7.74551C98.1849 6.432 98.8856 5.24491 99.9206 4.39003C100.956 3.53515 102.26 3.06638 103.607 3.06498C105.134 3.06697 106.599 3.66983 107.679 4.7413C108.759 5.81278 109.366 7.26537 109.368 8.78042V24.5218C109.368 26.092 111.347 27.9158 113.9 27.9158C116.207 27.9158 118.47 26.2348 118.47 24.5218V8.78042C118.471 8.02896 118.621 7.285 118.911 6.59105C119.202 5.89709 119.628 5.26674 120.164 4.73598C120.701 4.20523 121.337 3.78449 122.038 3.49777C122.738 3.21105 123.489 3.06399 124.246 3.06498C125.773 3.06895 127.235 3.67269 128.314 4.74395C129.392 5.81521 129.999 7.26667 130 8.78042Z" fill="#263140"/>
<path d="M29.9297 11.7105C28.4198 14.6508 27.6369 17.9052 27.6456 21.2049C27.6404 25.4435 28.9336 29.5837 31.3539 33.0772V33.3965C31.3524 34.9118 30.7447 36.3647 29.6642 37.4362C28.5838 38.5078 27.1187 39.1104 25.5907 39.1119C24.063 39.1099 22.5985 38.507 21.5184 37.4356C20.4383 36.3641 19.8309 34.9115 19.8294 33.3965V26.9184H11.5284V33.3965C11.5274 34.9117 10.9202 36.3645 9.83998 37.4361C8.75981 38.5077 7.29499 39.1104 5.76714 39.1119C4.23944 39.1099 2.77491 38.507 1.69484 37.4356C0.614774 36.3641 0.00736269 34.9115 0.00585938 33.3965V9.01144C0.0078638 7.49672 0.615499 6.04461 1.69551 4.97354C2.77553 3.90247 4.23977 3.29987 5.76714 3.29788C7.29466 3.29937 8.75919 3.90181 9.83931 4.97299C10.9194 6.04417 11.5269 7.49657 11.5284 9.01144V15.4894H19.8294V9.01144C19.8314 7.49672 20.4391 6.04461 21.5191 4.97354C22.5991 3.90247 24.0634 3.29987 25.5907 3.29788C27.1184 3.29937 28.5831 3.90175 29.6636 4.97288C30.744 6.044 31.3519 7.4964 31.3539 9.01144V9.33638C30.8269 10.0957 30.3511 10.8888 29.9297 11.7105Z" fill="#263140"/>
<path d="M81.173 14.6762C80.9173 14.6762 80.6578 14.6762 80.3965 14.6762C80.7241 14.6762 81.048 14.6762 81.3662 14.6762H81.173ZM90.385 37.9249C90.6331 37.8178 90.8774 37.707 91.116 37.5887C90.8774 37.7051 90.6331 37.8178 90.385 37.9249ZM98.7636 29.3583C98.8962 29.0521 99.0174 28.7422 99.1311 28.4192C99.0174 28.746 98.8943 29.0521 98.7636 29.3583ZM100.029 25.0233C100.087 24.6909 100.137 24.3584 100.175 24.0222C100.135 24.3584 100.086 24.6909 100.029 25.0233ZM100.266 19.8807C100.29 20.2038 100.307 20.525 100.317 20.848C100.309 20.525 100.292 20.2038 100.266 19.8807ZM100.324 21.1711C100.324 21.4472 100.324 21.7252 100.324 22.0013C100.328 21.7233 100.33 21.4472 100.324 21.1711Z" fill="#263140"/>
<path d="M100.324 21.1711C100.292 17.8274 99.4341 14.5424 97.8261 11.6034C97.413 10.8661 96.9478 10.1588 96.434 9.48663C96.2238 9.21617 96.0098 8.95134 95.7844 8.69402C94.776 7.53312 93.5997 6.52675 92.2939 5.70765C91.909 5.46514 91.5121 5.24198 91.1046 5.039C90.7428 4.85118 90.3697 4.68589 89.9928 4.53C88.2284 3.82097 86.355 3.4151 84.4531 3.32981C82.3585 3.29788 80.0782 3.31666 77.9305 3.27909C75.565 3.29787 73.1635 3.17767 70.8208 3.48194C68.1219 4.13369 66.2867 6.7463 66.4894 9.49227C71.3056 16.2914 71.2109 26.2573 66.4894 32.9269C66.4279 33.9414 66.6232 34.9551 67.0576 35.8757C67.5283 36.8453 68.2653 37.6635 69.184 38.2363C70.1026 38.8091 71.1656 39.1132 72.2507 39.1138H76.8472C83.0668 39.1138 86.1274 39.1795 87.7391 38.8189C90.8543 38.0763 93.6681 36.4118 95.8072 34.0463C95.9965 33.8435 96.1708 33.635 96.3431 33.4209C96.5155 33.2068 96.6537 33.0264 96.8052 32.8255C99.2579 29.4766 100.383 25.2844 100.324 21.1711ZM88.919 21.7965C88.8054 23.0211 88.5402 24.2664 87.866 25.3107C87.654 25.6442 87.3993 25.9492 87.1084 26.2179C86.5405 26.7194 85.867 27.089 85.1369 27.2997C82.8111 27.9721 80.4134 27.6754 78.0082 27.6904V14.7306C78.8055 14.7306 79.6085 14.6987 80.404 14.6874C83.4607 14.6086 87.2126 14.7757 88.3925 18.1377C88.8214 19.3081 89.0007 20.5539 88.919 21.7965Z" fill="#263140"/>
<path d="M59.4952 0.544403C59.5497 0.612604 59.5978 0.685529 59.6391 0.762284C59.5981 0.68539 59.5499 0.612444 59.4952 0.544403ZM37.9766 1.01021C38.0004 0.923997 38.0328 0.840321 38.0732 0.760404C38.032 0.839966 37.9996 0.923727 37.9766 1.01021Z" fill="#263140"/>
<path d="M66.4818 14.2836C65.2027 11.1003 63.0743 8.32209 60.3247 6.2467C60.3398 6.14528 59.8058 1.38398 59.8039 1.28068C59.766 0.930834 59.599 0.607228 59.3351 0.372139C59.0711 0.137049 58.7288 0.00708014 58.374 0.00723521C57.713 -0.163683 54.2812 2.74756 53.7168 3.03305C50.5362 2.20288 47.1931 2.20288 44.0124 3.03305C43.4215 2.73066 40.0352 -0.148658 39.3553 0.00723521C39.0006 0.00786131 38.6584 0.138055 38.3943 0.372953C38.1302 0.60785 37.9626 0.930998 37.9235 1.28068C37.9235 1.38586 37.3951 6.13965 37.4027 6.24483C23.134 16.8812 30.7304 39.9965 48.8684 39.9965C62.0576 40.2539 71.5026 26.0996 66.4818 14.2836ZM48.8684 28.5581C39.1337 28.3872 39.1034 14.047 48.8305 13.8329C58.605 13.97 58.641 28.391 48.8684 28.5675V28.5581Z" fill="#263140"/>
</svg>
